<?xml version="1.0" encoding="UTF-8"?>
<svg id="_レイヤー_1" data-name="レイヤー_1" xmlns="http://www.w3.org/2000/svg" version="1.1" viewBox="0 0 45 40">
  <!-- Generator: Adobe Illustrator 30.5.1, SVG Export Plug-In . SVG Version: 2.1.4 Build 3)  -->
  <defs>
    <style>
      .st0 {
        fill: #f55;
      }
    </style>
  </defs>
  <path class="st0" d="M40.86,3.49c-1.11-1.11-2.43-1.99-3.88-2.59C35.53.31,33.97,0,32.4,0c-1.57,0-3.13.31-4.58.91-1.45.6-2.77,1.48-3.88,2.59l-1.45,1.46-1.44-1.46h0c-1.11-1.12-2.43-1.99-3.88-2.59C15.72.31,14.17,0,12.6,0s-3.12.31-4.57.91c-1.45.6-2.77,1.48-3.88,2.58l-.65.64C1.26,6.37,0,9.4,0,12.57s1.26,6.2,3.5,8.43l17.03,16.99,1.92,2.01.05-.05.05.05,1.8-1.9,17.15-17.11c2.24-2.24,3.5-5.27,3.5-8.43s-1.26-6.19-3.5-8.43l-.65-.64Z"/>
  <path class="st0" d="M39.39,18.89l-16.89,16.84L5.61,18.89c-1.68-1.68-2.63-3.95-2.63-6.32s.94-4.65,2.63-6.32l.65-.64c1.68-1.68,3.96-2.62,6.34-2.62,2.38,0,4.66.94,6.34,2.61l3.56,3.61,3.57-3.61c.83-.83,1.82-1.49,2.91-1.94,1.09-.45,2.25-.68,3.43-.68s2.34.23,3.43.68c1.09.45,2.08,1.11,2.91,1.94l.65.64c1.68,1.68,2.62,3.95,2.62,6.32,0,2.37-.94,4.64-2.62,6.32Z"/>
</svg>